<svg width="18" height="21" viewBox="0 0 18 21" fill="none" xmlns="http://www.w3.org/2000/svg">
<path d="M14.4581 11.1254C14.4862 14.152 17.1133 15.1592 17.1424 15.172C17.1202 15.243 16.7226 16.6074 15.7583 18.0166C14.9247 19.235 14.0596 20.4488 12.6967 20.474C11.3575 20.4986 10.9269 19.6799 9.39588 19.6799C7.8653 19.6799 7.38686 20.4489 6.11919 20.4987C4.80367 20.5485 3.80187 19.1812 2.96139 17.9673C1.24389 15.4842 -0.0686346 10.9508 1.69376 7.89061C2.56927 6.37092 4.13389 5.40859 5.83214 5.38391C7.12395 5.35927 8.34323 6.253 9.13297 6.253C9.92221 6.253 11.4039 5.17821 12.9616 5.33606C13.6137 5.3632 15.4442 5.59947 16.6195 7.31993C16.5248 7.37864 14.4354 8.59499 14.4581 11.1254ZM11.9413 3.6933C12.6397 2.84789 13.1098 1.671 12.9816 0.5C11.9749 0.540462 10.7575 1.17085 10.0354 2.0158C9.38827 2.76404 8.82152 3.96164 8.97444 5.10946C10.0966 5.19628 11.2429 4.53925 11.9413 3.6933Z" fill="black"/>
</svg>
