<svg width="20" height="21" viewBox="0 0 20 21" fill="none" xmlns="http://www.w3.org/2000/svg">
<g clip-path="url(#clip0_187_1567)">
<path d="M19.7618 10.6871C19.7618 9.86771 19.6954 9.26977 19.5515 8.6497H10.1948V12.348H15.687C15.5763 13.2671 14.9783 14.6512 13.6496 15.5813L13.6309 15.7051L16.5893 17.9969L16.7943 18.0174C18.6767 16.2789 19.7618 13.7211 19.7618 10.6871Z" fill="#4285F4"/>
<path d="M10.1947 20.4313C12.8854 20.4313 15.1442 19.5454 16.7941 18.0174L13.6494 15.5813C12.8079 16.1682 11.6784 16.5779 10.1947 16.5779C7.55932 16.5779 5.3226 14.8395 4.52527 12.4366L4.4084 12.4466L1.33222 14.8273L1.29199 14.9391C2.93077 18.1945 6.29695 20.4313 10.1947 20.4313Z" fill="#34A853"/>
<path d="M4.52526 12.4366C4.31488 11.8166 4.19313 11.1521 4.19313 10.4656C4.19313 9.77908 4.31488 9.11473 4.51419 8.49466L4.50862 8.3626L1.39389 5.94366L1.29198 5.99214C0.616561 7.34305 0.229004 8.86008 0.229004 10.4656C0.229004 12.0712 0.616561 13.5882 1.29198 14.9391L4.52526 12.4366Z" fill="#FBBC05"/>
<path d="M10.1947 4.35336C12.066 4.35336 13.3283 5.16168 14.048 5.83718L16.8605 3.09107C15.1332 1.4855 12.8854 0.5 10.1947 0.5C6.29695 0.5 2.93077 2.73672 1.29199 5.99214L4.51421 8.49466C5.3226 6.09183 7.55932 4.35336 10.1947 4.35336Z" fill="#EB4335"/>
</g>
<defs>
<clipPath id="clip0_187_1567">
<rect width="20" height="20" fill="white" transform="translate(0 0.5)"/>
</clipPath>
</defs>
</svg>
