<svg width="31" height="32" viewBox="0 0 31 32" fill="none" xmlns="http://www.w3.org/2000/svg">
<path fill-rule="evenodd" clip-rule="evenodd" d="M13.3487 24.7845L20.3681 31.248C20.9144 31.7508 21.5527 32 22.2951 32H29.5079C29.75 32 29.9562 31.857 30.0407 31.6301C30.1255 31.4031 30.0634 31.1601 29.8807 31.0015L23.2217 25.2244C23.0783 25.1 23.0102 24.9296 23.0282 24.7406C23.0465 24.5516 23.1456 24.3971 23.31 24.3022L26.6493 22.3743C27.3273 21.9825 27.7716 21.4038 27.9746 20.6474L30.7435 10.3186C30.8146 10.0537 30.7632 9.79592 30.5962 9.57836C30.4293 9.36099 30.1931 9.24445 29.9192 9.24445H0.85541C0.581304 9.24445 0.345152 9.36099 0.178197 9.57836C0.0112418 9.79592 -0.0399371 10.0541 0.031177 10.319L5.5683 30.9465C5.73775 31.5768 6.28941 31.9998 6.94209 31.9998H10.7798C11.4066 31.9998 11.9176 31.4888 11.9176 30.862V25.4119C11.9176 25.0657 12.111 24.7697 12.4282 24.6306C12.7453 24.4918 13.0939 24.5499 13.3487 24.7845ZM18.8749 7.1279C18.7355 6.42461 18.3892 5.79551 17.9015 5.30787C17.2584 4.66459 16.369 4.26665 15.387 4.26665C14.405 4.26665 13.516 4.66459 12.8727 5.30787C12.3851 5.79551 12.0381 6.42442 11.899 7.1279C11.8183 7.5356 11.4696 7.82217 11.0541 7.82217H8.47918C8.22348 7.82217 8.00305 7.72288 7.8336 7.53139C7.66434 7.3397 7.59246 7.10911 7.62409 6.85532C7.84242 5.08226 8.65515 3.49245 9.85604 2.29137C11.2716 0.875605 13.2272 0 15.3868 0C17.5467 0 19.5024 0.875413 20.9178 2.29137C22.1187 3.49245 22.9313 5.08226 23.15 6.85532C23.1814 7.10911 23.1097 7.3397 22.9403 7.53139C22.7708 7.72307 22.5506 7.82217 22.2947 7.82217H19.7202C19.3046 7.82217 18.9558 7.5356 18.8749 7.1279ZM20.1931 16.6418C20.4645 16.7986 20.62 17.0676 20.62 17.3808C20.62 17.6942 20.4645 17.9631 20.1931 18.1199L13.1973 22.159C12.926 22.3155 12.6153 22.3155 12.3443 22.159C12.0728 22.0022 11.9174 21.7333 11.9174 21.4199V13.342C11.9174 13.0288 12.0728 12.7599 12.3443 12.6033C12.6155 12.4465 12.9262 12.4465 13.1973 12.6033L20.1931 16.6418Z" fill="#41D7A5"/>
</svg>
